<svg width="45" height="45" viewBox="0 0 45 45" fill="none" xmlns="http://www.w3.org/2000/svg">
<g id="Group 39639">
<g id="Group 39630">
<path id="Rectangle 148699" d="M0 8C0 3.58172 3.58172 0 8 0H37C41.4183 0 45 3.58172 45 8V37C45 41.4183 41.4183 45 37 45H8C3.58172 45 0 41.4183 0 37V8Z" fill="white"/>
<path id="Rectangle 148699 (Stroke)" fill-rule="evenodd" clip-rule="evenodd" d="M37 1.5H8C4.41015 1.5 1.5 4.41015 1.5 8V37C1.5 40.5899 4.41015 43.5 8 43.5H37C40.5899 43.5 43.5 40.5899 43.5 37V8C43.5 4.41015 40.5899 1.5 37 1.5ZM8 0C3.58172 0 0 3.58172 0 8V37C0 41.4183 3.58172 45 8 45H37C41.4183 45 45 41.4183 45 37V8C45 3.58172 41.4183 0 37 0H8Z" fill="#7C7C7C"/>
<g id="tv">
<mask id="mask0_406_572" style="mask-type:alpha" maskUnits="userSpaceOnUse" x="4" y="4" width="36" height="36">
<path id="Rectangle 148686" d="M4 4H40V40H4V4Z" fill="#D9D9D9"/>
</mask>
<g mask="url(#mask0_406_572)">
<g id="Group 39625">
<path id="Vector" d="M33.8656 13.2563H24.0952L27.7456 9.6059C27.8199 9.53842 27.8792 9.45616 27.9198 9.36441C27.9604 9.27266 27.9813 9.17343 27.9813 9.0731C27.9813 8.97277 27.9604 8.87355 27.9198 8.7818C27.8792 8.69004 27.8199 8.60778 27.7456 8.5403C27.6028 8.39916 27.41 8.32001 27.2092 8.32001C27.0084 8.32001 26.8157 8.39916 26.6728 8.5403L22.2736 12.9395L17.8744 8.5403C17.7316 8.39916 17.5388 8.32001 17.338 8.32001C17.1372 8.32001 16.9445 8.39916 16.8016 8.5403C16.7274 8.60778 16.668 8.69004 16.6274 8.7818C16.5869 8.87355 16.5659 8.97277 16.5659 9.0731C16.5659 9.17343 16.5869 9.27266 16.6274 9.36441C16.668 9.45616 16.7274 9.53842 16.8016 9.6059L20.4952 13.2563H10.7248C10.0883 13.2563 9.47768 13.5087 9.0269 13.9581C8.57612 14.4075 8.32191 15.0174 8.32001 15.6539V32.2139C8.32191 32.8504 8.57612 33.4603 9.0269 33.9097C9.47768 34.3591 10.0883 34.6115 10.7248 34.6115H13.2952V35.5043C13.2952 35.7048 13.3749 35.8971 13.5166 36.0389C13.6584 36.1806 13.8507 36.2603 14.0512 36.2603C14.2517 36.2603 14.444 36.1806 14.5858 36.0389C14.7276 35.8971 14.8072 35.7048 14.8072 35.5043V34.6115H29.8552V35.5043C29.8552 35.7048 29.9349 35.8971 30.0766 36.0389C30.2184 36.1806 30.4107 36.2603 30.6112 36.2603C30.8117 36.2603 31.004 36.1806 31.1458 36.0389C31.2876 35.8971 31.3672 35.7048 31.3672 35.5043V34.6115H33.9016C34.5382 34.6115 35.1487 34.3591 35.5995 33.9097C36.0503 33.4603 36.3045 32.8504 36.3064 32.2139V15.6539C36.3055 15.3357 36.2414 15.0207 36.1179 14.7274C35.9944 14.4341 35.8139 14.1683 35.5868 13.9453C35.3598 13.7222 35.0907 13.5465 34.7953 13.4282C34.4998 13.31 34.1838 13.2515 33.8656 13.2563ZM34.7584 32.2211C34.7565 32.4566 34.6616 32.6819 34.4944 32.8478C34.3272 33.0136 34.1011 33.1067 33.8656 33.1067H10.7248C10.4893 33.1067 10.2633 33.0136 10.096 32.8478C9.92881 32.6819 9.83391 32.4566 9.83201 32.2211V15.6611C9.83391 15.4256 9.92881 15.2003 10.096 15.0345C10.2633 14.8686 10.4893 14.7755 10.7248 14.7755H33.8656C34.1011 14.7755 34.3272 14.8686 34.4944 15.0345C34.6616 15.2003 34.7565 15.4256 34.7584 15.6611V32.2211Z" fill="#7C7C7C"/>
<path id="Vector_2" d="M28.9336 16.5107H12.3736C12.2761 16.5058 12.1785 16.5208 12.087 16.5548C11.9954 16.5888 11.9118 16.6411 11.841 16.7084C11.7703 16.7758 11.714 16.8568 11.6756 16.9466C11.6372 17.0364 11.6175 17.1331 11.6176 17.2307V30.5363C11.6124 30.637 11.6284 30.7376 11.6646 30.8316C11.7008 30.9257 11.7563 31.0111 11.8275 31.0824C11.8988 31.1536 11.9842 31.2091 12.0783 31.2453C12.1723 31.2815 12.2729 31.2975 12.3736 31.2923H28.9336C29.0342 31.2975 29.1348 31.2815 29.2289 31.2453C29.323 31.2091 29.4084 31.1536 29.4797 31.0824C29.5509 31.0111 29.6064 30.9257 29.6426 30.8316C29.6787 30.7376 29.6948 30.637 29.6896 30.5363V17.2667C29.6948 17.1661 29.6787 17.0655 29.6426 16.9714C29.6064 16.8773 29.5509 16.7919 29.4797 16.7206C29.4084 16.6494 29.323 16.5939 29.2289 16.5577C29.1348 16.5216 29.0342 16.5055 28.9336 16.5107ZM28.2136 29.7803H13.1224V18.0227H28.1776L28.2136 29.7803Z" fill="#7C7C7C"/>
<path id="Vector_3" d="M32.224 18.0875C32.0597 18.0861 31.8986 18.1336 31.7613 18.224C31.6241 18.3145 31.5168 18.4437 31.4533 18.5953C31.3897 18.7469 31.3727 18.9139 31.4044 19.0752C31.4361 19.2365 31.5151 19.3847 31.6314 19.5009C31.7476 19.6172 31.8958 19.6962 32.0571 19.7279C32.2184 19.7596 32.3854 19.7426 32.537 19.6791C32.6886 19.6155 32.8179 19.5083 32.9083 19.371C32.9987 19.2337 33.0462 19.0727 33.0448 18.9083C33.0429 18.6912 32.9559 18.4835 32.8023 18.33C32.6488 18.1764 32.4411 18.0894 32.224 18.0875Z" fill="#7C7C7C"/>
<path id="Vector_4" d="M32.224 21.3779C32.0597 21.3765 31.8986 21.424 31.7613 21.5144C31.6241 21.6049 31.5168 21.7341 31.4533 21.8857C31.3897 22.0373 31.3727 22.2044 31.4044 22.3656C31.4361 22.5269 31.5151 22.6751 31.6314 22.7914C31.7476 22.9076 31.8958 22.9866 32.0571 23.0183C32.2184 23.05 32.3854 23.033 32.537 22.9695C32.6886 22.9059 32.8179 22.7987 32.9083 22.6614C32.9987 22.5241 33.0462 22.3631 33.0448 22.1987C33.0429 21.9816 32.9559 21.7739 32.8023 21.6204C32.6488 21.4669 32.4411 21.3798 32.224 21.3779Z" fill="#7C7C7C"/>
<path id="Vector_5" d="M32.224 24.7331C32.1264 24.733 32.0297 24.7527 31.9399 24.7911C31.8501 24.8295 31.7691 24.8858 31.7017 24.9565C31.6344 25.0272 31.5821 25.1109 31.5481 25.2025C31.5141 25.294 31.4991 25.3915 31.504 25.4891V28.8947C31.504 29.0952 31.5837 29.2875 31.7254 29.4292C31.8672 29.571 32.0595 29.6507 32.26 29.6507C32.4605 29.6507 32.6528 29.571 32.7946 29.4292C32.9364 29.2875 33.016 29.0952 33.016 28.8947V25.4963C33.0228 25.3918 33.0068 25.2871 32.969 25.1894C32.9312 25.0917 32.8726 25.0035 32.7971 24.9309C32.7217 24.8582 32.6314 24.8029 32.5324 24.7687C32.4334 24.7345 32.3282 24.7224 32.224 24.7331Z" fill="#7C7C7C"/>
</g>
</g>
</g>
</g>
</g>
</svg>
