<svg width="45" height="45" viewBox="0 0 45 45" fill="none" xmlns="http://www.w3.org/2000/svg">
<g id="Group 39642">
<g id="Group 39625">
<path id="Rectangle 148697" d="M0 8C0 3.58172 3.58172 0 8 0H37C41.4183 0 45 3.58172 45 8V37C45 41.4183 41.4183 45 37 45H8C3.58172 45 0 41.4183 0 37V8Z" fill="white"/>
<path id="Rectangle 148697 (Stroke)" fill-rule="evenodd" clip-rule="evenodd" d="M37 1.5H8C4.41015 1.5 1.5 4.41015 1.5 8V37C1.5 40.5899 4.41015 43.5 8 43.5H37C40.5899 43.5 43.5 40.5899 43.5 37V8C43.5 4.41015 40.5899 1.5 37 1.5ZM8 0C3.58172 0 0 3.58172 0 8V37C0 41.4183 3.58172 45 8 45H37C41.4183 45 45 41.4183 45 37V8C45 3.58172 41.4183 0 37 0H8Z" fill="#7C7C7C"/>
<g id="computer">
<mask id="mask0_406_551" style="mask-type:alpha" maskUnits="userSpaceOnUse" x="4" y="4" width="36" height="36">
<path id="Rectangle 148681" d="M4 4H40V40H4V4Z" fill="#D9D9D9"/>
</mask>
<g mask="url(#mask0_406_551)">
<g id="Group 39621">
<path id="Vector" d="M36.6088 8.98961C36.3991 8.77686 36.1492 8.60806 35.8735 8.49308C35.5978 8.37811 35.3019 8.31927 35.0032 8.32001H9.16241C8.55767 8.32191 7.97823 8.56299 7.55061 8.99061C7.12299 9.41823 6.88191 9.99767 6.88002 10.6024V28.84C6.87912 29.1398 6.93786 29.4368 7.05281 29.7137C7.16777 29.9906 7.33664 30.2418 7.54962 30.4528C7.97764 30.8803 8.55746 31.121 9.16241 31.1224H19.5016L18.4936 34.1608H17.5216C17.4214 34.1607 17.3221 34.1804 17.2294 34.2187C17.1368 34.257 17.0526 34.3132 16.9816 34.384C16.9096 34.4526 16.8527 34.5353 16.8142 34.627C16.7758 34.7187 16.7568 34.8174 16.7584 34.9168C16.7584 35.1192 16.8388 35.3133 16.982 35.4565C17.1251 35.5996 17.3192 35.68 17.5216 35.68H26.6368C26.8392 35.68 27.0333 35.5996 27.1765 35.4565C27.3196 35.3133 27.4 35.1192 27.4 34.9168C27.4016 34.8174 27.3826 34.7187 27.3442 34.627C27.3058 34.5353 27.2488 34.4526 27.1768 34.384C27.1059 34.3132 27.0217 34.257 26.929 34.2187C26.8364 34.1804 26.7371 34.1607 26.6368 34.1608H25.6648L24.6568 31.1224H35.0032C35.6067 31.1186 36.1843 30.8767 36.6104 30.4493C37.0364 30.0219 37.2765 29.4435 37.2784 28.84V10.6024C37.2793 10.3026 37.2206 10.0056 37.1056 9.72875C36.9907 9.45187 36.8218 9.20062 36.6088 8.98961ZM20.0992 34.1896L21.1072 31.1512H23.0512L24.0664 34.1896H20.0992ZM35.7592 28.8688C35.7593 28.9691 35.7396 29.0684 35.7013 29.161C35.663 29.2537 35.6069 29.3379 35.536 29.4088C35.3937 29.5489 35.2029 29.6288 35.0032 29.632H9.16241C8.96054 29.6292 8.76739 29.5493 8.62241 29.4088C8.55156 29.3379 8.49539 29.2537 8.45709 29.161C8.41879 29.0684 8.39913 28.9691 8.39922 28.8688V25.0384H35.7592V28.8688ZM35.7592 23.548H8.39922V10.6024C8.39922 10.4 8.47962 10.2059 8.62275 10.0627C8.76588 9.91962 8.96 9.83921 9.16241 9.83921H35.0032C35.1026 9.83762 35.2013 9.85662 35.293 9.89504C35.3847 9.93345 35.4674 9.99044 35.536 10.0624C35.6069 10.1334 35.663 10.2176 35.7013 10.3102C35.7396 10.4029 35.7593 10.5022 35.7592 10.6024V23.548Z" fill="#7C7C7C"/>
<path id="Vector_2" d="M20.5601 28.0768H23.5985C23.7995 28.0766 23.9928 27.9993 24.1385 27.8608C24.2454 27.7541 24.3181 27.618 24.3477 27.4699C24.3772 27.3218 24.362 27.1682 24.3042 27.0287C24.2464 26.8891 24.1485 26.7699 24.0228 26.686C23.8972 26.6022 23.7495 26.5575 23.5985 26.5576H20.5601C20.4598 26.5575 20.3605 26.5772 20.2679 26.6155C20.1752 26.6538 20.091 26.71 20.0201 26.7808C19.9121 26.8866 19.8383 27.0222 19.8082 27.1703C19.7781 27.3184 19.7931 27.4722 19.8512 27.6117C19.9094 27.7512 20.008 27.87 20.1343 27.953C20.2607 28.0359 20.409 28.079 20.5601 28.0768Z" fill="#7C7C7C"/>
</g>
</g>
</g>
</g>
</g>
</svg>
