<svg width="45" height="45" viewBox="0 0 45 45" fill="none" xmlns="http://www.w3.org/2000/svg">
<g id="Group 39638">
<g id="Group 39629">
<path id="Rectangle 148700" d="M0 8C0 3.58172 3.58172 0 8 0H37C41.4183 0 45 3.58172 45 8V37C45 41.4183 41.4183 45 37 45H8C3.58172 45 0 41.4183 0 37V8Z" />
<path id="Rectangle 148700 (Stroke)" fill-rule="evenodd" clip-rule="evenodd" d="M37 1.5H8C4.41015 1.5 1.5 4.41015 1.5 8V37C1.5 40.5899 4.41015 43.5 8 43.5H37C40.5899 43.5 43.5 40.5899 43.5 37V8C43.5 4.41015 40.5899 1.5 37 1.5ZM8 0C3.58172 0 0 3.58172 0 8V37C0 41.4183 3.58172 45 8 45H37C41.4183 45 45 41.4183 45 37V8C45 3.58172 41.4183 0 37 0H8Z" fill="#7C7C7C"/>
<g id="Bicycle">
<mask id="mask0_372_648" style="mask-type:alpha" maskUnits="userSpaceOnUse" x="4" y="4" width="36" height="36">
<path id="Rectangle 148685" d="M4 4H40V40H4V4Z" fill="#D9D9D9"/>
</mask>
<g mask="url(#mask0_372_648)">
<path id="Vector" d="M30.8854 19.3576C30.1197 19.3576 29.3605 19.4992 28.6462 19.7752L28.5166 19.8256L28.459 19.696C27.8926 18.4833 27.4651 17.2104 27.1846 15.9016C27.0015 14.9823 26.5053 14.1548 25.7807 13.5601C25.056 12.9654 24.1477 12.6403 23.2102 12.64C23.0059 12.64 22.81 12.7212 22.6655 12.8657C22.521 13.0101 22.4398 13.2061 22.4398 13.4104C22.4398 13.6147 22.521 13.8107 22.6655 13.9552C22.81 14.0996 23.0059 14.1808 23.2102 14.1808C23.4144 14.1814 23.6176 14.2081 23.815 14.26H23.8798H23.9446C24.5595 14.4601 25.0747 14.8877 25.3846 15.4552L25.4278 15.5416L25.3702 15.6136L25.3126 15.7L23.5846 18.7096H15.6646L15.1102 17.32H15.5062C15.6986 17.3014 15.8772 17.2119 16.0072 17.0688C16.1371 16.9257 16.2091 16.7393 16.2091 16.546C16.2091 16.3527 16.1371 16.1664 16.0072 16.0233C15.8772 15.8802 15.6986 15.7906 15.5062 15.772H12.3454C12.153 15.7906 11.9745 15.8802 11.8445 16.0233C11.7146 16.1664 11.6426 16.3527 11.6426 16.546C11.6426 16.7393 11.7146 16.9257 11.8445 17.0688C11.9745 17.2119 12.153 17.3014 12.3454 17.32H13.5046L13.5406 17.4064L14.4478 19.696L14.167 19.6168C13.595 19.4443 13.0006 19.3569 12.403 19.3576C11.2065 19.3575 10.0351 19.7013 9.02844 20.348C8.02174 20.9947 7.22211 21.9171 6.72478 23.0054C6.22745 24.0937 6.05336 25.3019 6.22325 26.4864C6.39315 27.6708 6.89986 28.7814 7.68306 29.686C8.46625 30.5906 9.49293 31.251 10.6408 31.5887C11.7887 31.9264 13.0095 31.927 14.1577 31.5905C15.306 31.2541 16.3333 30.5947 17.1175 29.6909C17.9016 28.7871 18.4095 27.677 18.5806 26.4928V26.3704H20.3878C20.522 26.3707 20.654 26.3355 20.7703 26.2685C20.8866 26.2015 20.9831 26.1051 21.0502 25.9888L26.0326 17.6152L26.1262 17.9104C26.4141 18.7887 26.7531 19.6493 27.1414 20.488L27.1846 20.5888L27.0982 20.6608C25.932 21.5637 25.1239 22.8511 24.818 24.294C24.5121 25.7368 24.7283 27.2414 25.4279 28.5398C26.1275 29.8382 27.2652 30.8462 28.6384 31.3843C30.0117 31.9224 31.5313 31.9557 32.9268 31.4782C34.3223 31.0008 35.503 30.0435 36.2588 28.777C37.0146 27.5104 37.2964 26.0167 37.0539 24.5619C36.8115 23.107 36.0606 21.7855 34.9349 20.8324C33.8093 19.8794 32.3819 19.3568 30.907 19.3576H30.8854ZM12.367 26.3704H17.0038L16.9678 26.5432C16.7333 27.682 16.0846 28.6932 15.1473 29.3811C14.21 30.0689 13.0507 30.3845 11.894 30.2666C10.7374 30.1488 9.66562 29.6059 8.88628 28.7431C8.10695 27.8803 7.6755 26.7591 7.6755 25.5964C7.6755 24.4338 8.10695 23.3125 8.88628 22.4497C9.66562 21.5869 10.7374 21.0441 11.894 20.9262C13.0507 20.8083 14.21 21.1239 15.1473 21.8118C16.0846 22.4996 16.7333 23.5109 16.9678 24.6496L17.0038 24.8224H12.367C12.1746 24.841 11.9961 24.9306 11.8661 25.0737C11.7362 25.2168 11.6642 25.4031 11.6642 25.5964C11.6642 25.7897 11.7362 25.9761 11.8661 26.1192C11.9961 26.2623 12.1746 26.3518 12.367 26.3704ZM22.5118 20.4664L19.927 24.8224H18.5446V24.7C18.3328 23.2959 17.6529 22.0044 16.615 21.0352V20.992C16.6172 20.9609 16.6172 20.9296 16.615 20.8984L16.3702 20.2792H22.7134L22.5118 20.4664ZM30.8854 30.2872C29.9393 30.287 29.0154 30.0009 28.2347 29.4664C27.4541 28.932 26.8531 28.1742 26.5106 27.2922C26.1681 26.4103 26.1001 25.4455 26.3154 24.5242C26.5308 23.603 27.0195 22.7683 27.7174 22.1296L27.7894 22.072L28.2214 22.684C29.2582 24.6064 30.2014 25.9744 30.2446 26.0392C30.3163 26.1425 30.4122 26.2267 30.5239 26.2845C30.6356 26.3422 30.7597 26.3717 30.8854 26.3704C31.0116 26.3713 31.1357 26.339 31.2454 26.2768L31.375 26.1976C31.5238 26.0737 31.621 25.8988 31.6476 25.7071C31.6742 25.5153 31.6284 25.3205 31.519 25.1608C30.7009 23.9384 29.951 22.6716 29.2726 21.3664L29.1934 21.2152L29.3446 21.1576C29.8389 20.9913 30.3568 20.9062 30.8782 20.9056C32.056 20.9981 33.438 21.4925 34.24 22.36C35.042 23.2275 35.68 24.4186 35.68 25.6C35.68 26.7814 35.042 27.9725 34.24 28.84C33.438 29.7075 32.056 30.1731 30.8782 30.2656L30.8854 30.2872Z" fill="#7C7C7C"/>
</g>
</g>
</g>
<path id="Vector 7 (Stroke)" fill-rule="evenodd" clip-rule="evenodd" d="M1.46967 41.4697L40.9697 1.96967L42.0303 3.03033L2.53033 42.5303L1.46967 41.4697Z" fill="#7C7C7C"/>
</g>
</svg>
