<svg width="45" height="45" viewBox="0 0 45 45" fill="none" xmlns="http://www.w3.org/2000/svg">
<g id="Group 39632">
<rect id="Rectangle 148696" x="0.75" y="0.75" width="43.5" height="43.5" rx="7.25" fill="white" stroke="#7C7C7C" stroke-width="1.5"/>
<g id="Perfume">
<mask id="mask0_409_657" style="mask-type:alpha" maskUnits="userSpaceOnUse" x="4" y="4" width="36" height="36">
<rect id="Rectangle 148677" x="4" y="4" width="36" height="36" fill="#D9D9D9"/>
</mask>
<g mask="url(#mask0_409_657)">
<path id="Vector" d="M31.1831 7.60003C30.3581 7.60103 29.5451 7.79726 28.8106 8.17267C28.076 8.54809 27.4407 9.09204 26.9566 9.76003H21.7439V8.44963C21.7439 8.22554 21.6553 8.01053 21.4976 7.8514C21.3398 7.69228 21.1255 7.60193 20.9015 7.60003H16.3798C16.268 7.59907 16.1571 7.62039 16.0536 7.66275C15.9501 7.7051 15.856 7.76765 15.777 7.84673C15.6979 7.92582 15.6353 8.01986 15.593 8.12337C15.5506 8.22688 15.5293 8.33779 15.5303 8.44963V9.76003H14.1407C13.9172 9.76003 13.703 9.84878 13.545 10.0068C13.387 10.1647 13.2982 10.379 13.2982 10.6024C13.2982 10.8258 13.387 11.0401 13.545 11.1981C13.703 11.3561 13.9172 11.4448 14.1407 11.4448H15.5303V12.9712H15.3287C15.1058 12.9731 14.8926 13.0625 14.7351 13.22C14.5775 13.3776 14.4881 13.5908 14.4863 13.8136V17.1976C12.6697 17.9275 11.0813 19.1299 9.88562 20.6801C8.68996 22.2303 7.93052 24.072 7.68598 26.0144C7.44143 27.9568 7.72067 29.9293 8.49477 31.7275C9.26888 33.5257 10.5097 35.0842 12.0887 36.2416C12.2317 36.3496 12.4062 36.4078 12.5855 36.4072H24.6815C24.8607 36.4078 25.0352 36.3496 25.1782 36.2416C26.5424 35.2351 27.658 33.9298 28.4398 32.4256C29.1384 31.0658 29.5458 29.5753 29.6362 28.0492C29.7266 26.5231 29.4979 24.9949 28.9647 23.5621C28.4316 22.1293 27.6057 20.8233 26.5397 19.7275C25.4737 18.6317 24.191 17.7701 22.7735 17.1976V13.8136C22.7735 13.5902 22.6847 13.3759 22.5267 13.218C22.3687 13.06 22.1545 12.9712 21.9311 12.9712H21.7366V11.4376H26.1287C25.8363 12.4936 25.8826 13.6148 26.2612 14.6431C26.6398 15.6713 27.3316 16.5548 28.239 17.1691C29.1464 17.7833 30.2237 18.0973 31.319 18.0668C32.4143 18.0363 33.4725 17.6628 34.3443 16.999C35.2161 16.3352 35.8576 15.4145 36.1783 14.3668C36.4991 13.319 36.483 12.197 36.1322 11.1589C35.7815 10.1208 35.1138 9.21899 34.2233 8.5805C33.3328 7.942 32.2644 7.59907 31.1687 7.60003H31.1831ZM16.1782 16.9168V14.656H21.0958V16.9168H16.1782ZM27.979 27.3856C27.9838 28.8686 27.6306 30.3308 26.9495 31.648C26.3284 32.8405 25.4593 33.8863 24.4007 34.7152H12.8807C11.8262 33.884 10.9599 32.8386 10.339 31.648C9.65568 30.3313 9.30003 28.8691 9.30225 27.3856C9.31124 25.4597 9.91414 23.5834 11.0287 22.0126C12.1433 20.4419 13.7153 19.2533 15.5303 18.6088H21.7798C23.5894 19.258 25.1552 20.4487 26.2644 22.019C27.3735 23.5894 27.9722 25.4631 27.979 27.3856ZM17.2223 12.9856V9.29203H20.059V12.964L17.2223 12.9856ZM31.1831 16.4056C30.4807 16.4071 29.7937 16.2001 29.209 15.8109C28.6244 15.4217 28.1683 14.8679 27.8985 14.2194C27.6288 13.5709 27.5574 12.857 27.6936 12.168C27.8297 11.4789 28.1672 10.8458 28.6634 10.3486C29.1595 9.8515 29.792 9.51272 30.4807 9.37517C31.1695 9.23762 31.8835 9.3075 32.5326 9.57594C33.1816 9.84439 33.7364 10.2993 34.1267 10.8832C34.5171 11.4671 34.7255 12.1537 34.7255 12.856C34.7198 13.7924 34.3442 14.6887 33.6807 15.3495C33.0172 16.0103 32.1195 16.3821 31.1831 16.384V16.4056Z" fill="#7C7C7C"/>
</g>
</g>
</g>
</svg>
