<svg width="45" height="45" viewBox="0 0 45 45" fill="none" xmlns="http://www.w3.org/2000/svg">
<g id="Group 39631">
<rect id="Rectangle 148695" x="0.75" y="0.75" width="43.5" height="43.5" rx="7.25" fill="white" stroke="#7C7C7C" stroke-width="1.5"/>
<g id="Liquide">
<mask id="mask0_409_652" style="mask-type:alpha" maskUnits="userSpaceOnUse" x="4" y="4" width="36" height="36">
<rect id="Rectangle 148675" x="4" y="4" width="36" height="36" fill="#D9D9D9"/>
</mask>
<g mask="url(#mask0_409_652)">
<path id="Vector" d="M28.9602 17.3848C28.4392 16.4901 27.6949 15.7458 26.8002 15.2248L26.7138 15.1528L25.5906 14.26C25.4561 14.0231 25.3866 13.7548 25.389 13.4824V12.2872C25.6577 12.1651 25.8978 11.9879 26.0938 11.7671C26.2897 11.5464 26.4372 11.2869 26.5266 11.0056C26.5855 10.7827 26.6098 10.552 26.5986 10.3216V9.05442C26.5983 8.76914 26.5416 8.48674 26.4316 8.22352C26.3216 7.96029 26.1606 7.72146 25.9578 7.52082C25.556 7.11474 25.0098 6.88433 24.4386 6.88002H19.3986C19.1121 6.87931 18.8283 6.9356 18.5638 7.04562C18.2993 7.15563 18.0593 7.31716 17.8578 7.52082C17.6589 7.72324 17.5018 7.96287 17.3956 8.22601C17.2893 8.48915 17.236 8.77065 17.2386 9.05442V10.3216C17.2439 10.7647 17.3818 11.1961 17.6346 11.56C17.8662 11.8605 18.1612 12.1063 18.4986 12.28V13.4536C18.4955 13.7379 18.419 14.0166 18.2764 14.2626C18.1339 14.5086 17.9301 14.7136 17.685 14.8576L17.0874 15.2032C16.1761 15.7243 15.4185 16.4767 14.8913 17.3845C14.3641 18.2922 14.086 19.3231 14.085 20.3728V34.2544C14.0376 35.1146 14.3318 35.9587 14.9034 36.6032C15.4751 37.2476 16.2781 37.6404 17.1378 37.696H26.7138C27.5734 37.6404 28.3764 37.2476 28.9481 36.6032C29.5198 35.9587 29.8139 35.1146 29.7666 34.2544V20.3728C29.7645 19.3233 29.4864 18.2929 28.9602 17.3848ZM24.777 10.3216C24.7779 10.3654 24.77 10.409 24.754 10.4498C24.7379 10.4906 24.7139 10.5278 24.6834 10.5592C24.6512 10.5913 24.613 10.6167 24.571 10.634C24.529 10.6513 24.484 10.6601 24.4386 10.66H19.3986C19.3531 10.6601 19.3081 10.6513 19.2661 10.634C19.2241 10.6167 19.1859 10.5913 19.1538 10.5592C19.1232 10.5278 19.0992 10.4906 19.0831 10.4498C19.0671 10.409 19.0593 10.3654 19.0602 10.3216V9.05442C19.0593 9.01059 19.0671 8.96702 19.0831 8.92623C19.0992 8.88545 19.1232 8.84826 19.1538 8.81682C19.1859 8.78475 19.2241 8.75935 19.2661 8.74205C19.3081 8.72475 19.3531 8.71591 19.3986 8.71602H24.4386C24.484 8.71591 24.529 8.72475 24.571 8.74205C24.613 8.75935 24.6512 8.78475 24.6834 8.81682C24.7139 8.84826 24.7379 8.88545 24.754 8.92623C24.77 8.96702 24.7779 9.01059 24.777 9.05442V10.3216ZM19.8522 15.196C20.1532 14.6695 20.3144 14.0745 20.3202 13.468V12.496H23.517V13.468C23.5098 13.5206 23.5098 13.5739 23.517 13.6264C23.54 14.2054 23.7101 14.7689 24.0111 15.2639C24.3122 15.759 24.7343 16.1692 25.2378 16.456L25.8354 16.7944C26.4709 17.1554 26.9987 17.6792 27.3644 18.312C27.7302 18.9447 27.9206 19.6636 27.9162 20.3944V20.7616H15.9066V20.3944C15.9021 19.6644 16.0918 18.9464 16.4562 18.3138C16.8205 17.6812 17.3465 17.1569 17.9802 16.7944L18.585 16.456C19.1097 16.1533 19.5465 15.719 19.8522 15.196ZM15.9066 30.82V22.576H27.9306V30.82H15.9066ZM26.7066 35.86H17.1234C16.7509 35.8046 16.4149 35.6056 16.1874 35.3054C15.96 35.0053 15.8592 34.628 15.9066 34.2544V32.656H27.9306V34.2544C27.978 34.628 27.8771 35.0053 27.6497 35.3054C27.4222 35.6056 27.0862 35.8046 26.7138 35.86H26.7066Z" fill="#7C7C7C"/>
</g>
</g>
</g>
</svg>
